<?xml version="1.0" encoding="utf-8"?>
<!-- Generator: Adobe Illustrator 23.0.2, SVG Export Plug-In . SVG Version: 6.00 Build 0)  -->
<svg version="1.1" id="Layer_1" xmlns="http://www.w3.org/2000/svg" xmlns:xlink="http://www.w3.org/1999/xlink" x="0px" y="0px"
	 viewBox="0 0 800 422" style="enable-background:new 0 0 800 422;" xml:space="preserve">
<style type="text/css">
	.st0{fill:#FFFFFF;}
	.st1{fill:#666769;}
	.st2{fill:#808285;}
	.st3{fill:#FDFEFE;}
</style>
<g>
	<g>
		<g>
			<path class="st0" d="M719.6,251l-11.8,7.1c-10.7,6-9.2,6.2-9.8,11.4c-0.4,3.5-1.2,9.6-4.5,15.8l1.4,3.4l3.4,0.2l9.9-13l-0.4-7.3
				l8.6-3.2l5.7-15.7L719.6,251z"/>
			<path class="st0" d="M719.6,251l-1-1.6l-11.8,7.1l1,1.6l-0.9-1.6c-5.4,3-7.8,4.5-9.3,6.5c-0.7,1-1,2.1-1.1,3.1
				c-0.1,1-0.1,1.9-0.3,3.2v0c-0.4,3.6-1.1,9.4-4.3,15.2c-0.3,0.5-0.3,1.1,0,1.6l1.4,3.4c0.2,0.6,0.9,1.1,1.6,1.1l3.3,0.3
				c0.6,0,1.3-0.3,1.6-0.8l10-13c0.3-0.3,0.4-0.8,0.4-1.2l-0.4-6l7.3-2.7c0.5-0.2,0.9-0.6,1.1-1.1l5.7-15.7c0.3-0.7,0-1.5-0.5-2
				c-0.6-0.5-1.4-0.6-2.1-0.2l-2.4,1.2l-0.1,0.1L719.6,251l0.9,1.6l2.4-1.2l-0.9-1.7l-1.7-0.6l-5.4,14.9l-7.8,2.9
				c-0.8,0.3-1.3,1-1.2,1.9l0.4,6.6l-8.9,11.7l-1.2-0.1l-1-2.3l-1.7,0.7l1.6,0.9c3.6-6.5,4.3-12.9,4.8-16.4l0,0
				c0.2-1.4,0.2-2.4,0.3-3.1c0.1-0.5,0.2-0.8,0.3-1.1c0.2-0.5,0.7-1,2-2c1.3-0.9,3.3-2.1,6.3-3.8l0,0l11.8-7.1L719.6,251l0.9,1.6
				L719.6,251z"/>
			<polygon class="st0" points="693.4,292.6 686.8,303 693.3,300.9 693.3,296.2 698,293.1 			"/>
			<polygon class="st0" points="751.1,221.3 752.8,222.4 756.3,217.3 746.1,210.4 742.4,215.7 743.4,216.7 742.1,218.2 741.1,217.6 
				726.5,238.8 736.7,245.7 751.3,224.5 749.8,222.9 			"/>
			<polygon class="st0" points="724.2,288.2 728.9,287 726.6,284.2 726.1,277.9 714.4,283.3 			"/>
			<path class="st0" d="M724.2,288.2l0.4,1.8l4.7-1.3c0.6-0.1,1.2-0.6,1.3-1.2c0.2-0.6,0-1.3-0.3-1.7l-1.9-2.4l-0.4-5.7
				c-0.1-0.6-0.4-1.1-0.9-1.5c-0.5-0.3-1.2-0.3-1.7-0.1l-11.7,5.4c-0.6,0.3-1.1,0.9-1.1,1.7c0,0.7,0.4,1.3,1,1.7l9.8,4.9
				c0.4,0.2,0.9,0.3,1.3,0.1L724.2,288.2l0.8-1.6l-6.4-3.2l5.8-2.7l0.3,3.6c0,0.4,0.2,0.7,0.4,1l0.5,0.6l-2,0.5L724.2,288.2l0.8-1.6
				L724.2,288.2z"/>
			<path class="st0" d="M724.9,282.8c1,2.1-0.4,7.3-0.4,7.3c-2.6,1.3-7.4,1.6-7.4,1.6l-9.9-7l7.2-6.2L724.9,282.8z"/>
			<path class="st0" d="M724.9,282.8l-1.7,0.8c0,0.1,0.2,0.7,0.2,1.3c0,1-0.2,2.2-0.3,3.1c-0.1,0.5-0.2,0.9-0.2,1.2l-0.1,0.4
				l1.8,0.4l-0.8-1.6c-0.9,0.5-2.7,0.9-4.1,1.1c-0.7,0.1-1.4,0.2-1.8,0.2c-0.5,0-0.7,0.1-0.7,0.1l0.1,1.8l1.1-1.5l-8-5.6l4.6-3.9
				l9.4,3.9L724.9,282.8l-1.7,0.8L724.9,282.8l0.7-1.7l-10.5-4.3c-0.7-0.3-1.4-0.2-1.9,0.3l-7.3,6.2c-0.5,0.3-0.7,0.9-0.6,1.5
				c0,0.6,0.3,1.1,0.8,1.4l9.9,6.9c0.4,0.2,0.8,0.4,1.2,0.3c0,0,1.3-0.1,2.9-0.3c1.6-0.2,3.5-0.6,5.2-1.4c0.5-0.2,0.8-0.7,1-1.2
				c0-0.1,0.8-3,0.8-5.6c0-1-0.1-1.9-0.5-2.9c-0.2-0.4-0.5-0.7-1-0.9L724.9,282.8z"/>
			<path class="st0" d="M723.2,286.6c-1.3,1-2.4,2.8-2.1,4.3"/>
			<path class="st0" d="M722,285.1c-1.5,1.2-2.8,3-2.9,5.3l0,0.8c0.2,1,1.1,1.7,2.2,1.5c1-0.2,1.7-1.1,1.5-2.1l0-0.2
				c-0.1-0.6,0.7-1.9,1.4-2.4c0.8-0.7,1-1.8,0.3-2.6C724,284.6,722.9,284.5,722,285.1z"/>
			<path class="st0" d="M716.5,283.5c4.8,2.4,2.1,8,1.4,8.8c-1,1.6-5.9,1-7.2,1l-9.8-5.7l3.2-7.1L716.5,283.5z"/>
			<path class="st0" d="M716.5,283.5l-0.8,1.7c0.7,0.4,1.1,0.8,1.3,1.2c0.3,0.4,0.4,1,0.4,1.5c0,0.7-0.2,1.5-0.4,2.1l-0.3,0.8
				l-0.2,0.2l0,0.1l0.2,0.1l-0.2-0.1v0l0.2,0.1l-0.2-0.1l-0.2,0.2l0.5,0.3l-0.4-0.4l-0.1,0.2l0.5,0.3l-0.4-0.4l0.1,0.1l-0.1-0.1l0,0
				l0.1,0.1l-0.1-0.1c0,0-0.4,0.2-0.9,0.2c-0.5,0.1-1.2,0.1-1.9,0.1c-1.2,0-2.3-0.1-3-0.1v1.8l0.9-1.6l-8.3-4.9l1.9-4.2l10.8,2.6
				L716.5,283.5l-0.8,1.7L716.5,283.5l0.4-1.8l-12.4-3c-0.9-0.2-1.8,0.2-2.1,1l-3.2,7.1c-0.4,0.9-0.1,1.8,0.8,2.3l9.7,5.7l1,0.3
				c0.4,0,1.6,0.1,3,0.1c1,0,2,0,2.9-0.2c1-0.2,2.1-0.5,2.9-1.7l-1.6-1l1.4,1.2c0.3-0.3,0.4-0.5,0.6-0.9c0.6-1,1.2-2.7,1.2-4.7
				c0-1-0.2-2.2-0.8-3.3c-0.6-1.1-1.6-2.1-3-2.7l-0.4-0.1L716.5,283.5z"/>
			<path class="st0" d="M782.8,276l-5.1-12.6c-3.1,0-10.7,0-12.9-0.6c-4.5-2.5-27.5-13.4-40.2-13.4l-5.7,16l6.5-0.9l-3.6,7.9
				c-7,0.9-14.2,2.5-15.4,4.9c-1.1,0-8.5,1.7-8.8,3.7c0,0-1.5,3.7,2.6,5.1c4.5,1.5,6.4,0.6,16.6-1.5c2.8-0.4,21.6,0.7,30.1,5.5
				c10.1,4.4,19.3-3.4,28.3-6l6.6-7.1l-1-0.4L782.8,276z"/>
			<path class="st0" d="M782.8,276l1.7-0.7l-5.1-12.6c-0.3-0.7-0.9-1.2-1.7-1.2c-1.5,0-4.2,0-6.7-0.1c-1.3,0-2.5-0.1-3.5-0.2
				c-1-0.1-1.9-0.2-2.2-0.3l-0.5,1.8l0.9-1.6c-2.4-1.3-9.3-4.7-17.3-7.8c-8-3.1-17-5.9-23.8-5.9c-0.8,0-1.5,0.5-1.7,1.2l-5.7,16
				c-0.2,0.6-0.1,1.3,0.3,1.8c0.4,0.5,1.1,0.7,1.7,0.7l3.2-0.4l-2.2,4.9l1.7,0.8l-0.2-1.8c-3.6,0.5-7.2,1.1-10.2,2
				c-1.5,0.4-2.8,0.9-3.9,1.5c-1.1,0.6-2.1,1.3-2.7,2.5l1.6,0.8v-1.8c-0.4,0-0.6,0-1,0.1c-1.2,0.2-3.2,0.7-5.1,1.4
				c-0.9,0.4-1.8,0.7-2.6,1.3c-0.4,0.3-0.7,0.5-1.1,0.9c-0.4,0.4-0.7,0.9-0.8,1.6l1.8,0.3l-1.7-0.7c-0.1,0.1-0.4,1-0.4,2.2
				c0,0.8,0.2,1.9,0.8,2.9c0.7,1,1.8,1.9,3.3,2.4h0c1.6,0.6,3.1,0.9,4.7,0.9c3,0,6.2-0.9,12.9-2.3l-0.4-1.8l0.3,1.8
				c0.1-0.1,0.7-0.1,1.4-0.1c2.6,0,7.8,0.3,13.2,1.1c5.4,0.8,11,2.2,14.3,4.1l0.2,0.1c2.4,1.1,4.8,1.5,7.1,1.5c4.3,0,8.2-1.4,11.9-3
				c3.7-1.6,7.3-3.4,10.5-4.3l0.9-0.5l6.6-7.1c0.4-0.4,0.5-1,0.4-1.6c-0.1-0.6-0.5-1.1-1.1-1.3l-1-0.4l-0.7,1.7l0.6,1.8l1.8-0.6
				c0.5-0.2,0.9-0.5,1-1c0.2-0.5,0.3-1,0.1-1.4L782.8,276l-0.6-1.7l-1.9,0.6c-0.7,0.3-1.2,0.9-1.2,1.7c0,0.7,0.4,1.5,1.1,1.7l1,0.4
				l0.7-1.7l-1.4-1.2l-6.6,7.1l1.4,1.3l-0.5-1.8c-3.8,1.1-7.4,3-11,4.5c-3.6,1.5-7.1,2.8-10.4,2.8c-1.8,0-3.7-0.4-5.6-1.2l-0.8,1.7
				l1-1.6c-4.1-2.3-9.9-3.7-15.5-4.6c-5.6-0.9-10.9-1.2-13.8-1.2c-0.8,0-1.4,0-1.9,0.1l-0.1,0c-6.7,1.4-9.9,2.2-12.1,2.2
				c-1.2,0-2.1-0.2-3.5-0.6h0c-0.9-0.3-1.2-0.6-1.4-0.9c-0.2-0.3-0.3-0.6-0.3-0.9l0.1-0.7l0-0.2l0,0l0.1-0.4l-0.8-0.1l0.7,0.4
				l0.1-0.3l-0.8-0.1l0.7,0.4l-0.2-0.2l0.2,0.2v0l-0.2-0.2l0.2,0.2l0.3-0.2c0.7-0.5,2.3-1.1,3.8-1.5c0.7-0.2,1.4-0.4,2-0.5l0.7-0.2
				h0.2l0.1,0l0-0.2v0.2h0l0-0.2v0.2c0.7,0,1.4-0.4,1.7-1c0,0,0.4-0.5,1.2-0.8c1.1-0.6,3-1.3,5.3-1.8c2.3-0.5,4.8-1,7.4-1.3
				c0.6-0.1,1.2-0.5,1.5-1.1l3.6-7.9c0.2-0.6,0.2-1.3-0.2-1.9c-0.4-0.5-1-0.8-1.7-0.7l-3.5,0.5l4.6-13.1l-1.7-0.6v1.8
				c5.9,0,14.7,2.6,22.5,5.6c7.8,3,14.6,6.3,16.8,7.6l0.5,0.2c0.8,0.2,1.7,0.3,2.9,0.4c3.3,0.3,8.2,0.2,10.5,0.2v-1.8l-1.7,0.7
				l5.1,12.6L782.8,276l-0.6-1.7L782.8,276z"/>
			<path class="st0" d="M716.8,285.9l-3.6-0.7c-0.9-0.2-1.9,0.4-2.2,1.3l-1.1,3.9c-0.3,1,0.3,2,1.3,2.3c1,0.3,2-0.3,2.3-1.3l0.7-2.3
				l1.8,0.4c1,0.2,2-0.4,2.2-1.4C718.4,287,717.8,286.1,716.8,285.9z"/>
			<path class="st1" d="M706.7,277.6l1.7,4.6c0,0-5.3,2.2-6.9,2.1l-2.3-3.2"/>
			<path class="st2" d="M705,278.3l1.7,4.6l1.7-0.6l-0.7-1.7c0,0-0.3,0.1-0.8,0.3c-0.7,0.3-1.9,0.7-2.9,1c-0.5,0.2-1.1,0.3-1.5,0.4
				c-0.4,0.1-0.8,0.1-0.8,0.1v0.1l0-0.1h0v0.1l0-0.1l-0.1,1.9l1.5-1l-2.3-3.2c-0.6-0.8-1.7-1.1-2.6-0.5c-0.9,0.6-1,1.7-0.5,2.6
				l2.3,3.2c0.3,0.4,0.8,0.7,1.3,0.8l0.3,0c0.8,0,1.5-0.2,2.3-0.4c2.3-0.7,5.1-1.9,5.1-1.9c1-0.4,1.4-1.4,1.1-2.3l-1.7-4.6
				c-0.3-1-1.4-1.4-2.4-1.1C705.2,276.2,704.7,277.3,705,278.3z"/>
			<polygon class="st0" points="716,274.4 698.2,295.2 693,291.5 729,239 735.4,243.6 			"/>
			<path class="st0" d="M735.6,271.3c-4.3,0-26.9,1.7-29.2,6.1c-1.1,0-8.5,1.7-8.8,3.7c0,0-1.5,3.7,2.6,5.1
				c4.5,1.5,6.4,0.6,16.6-1.5c2.8-0.4,21.6,0.7,30.1,5.5c10.1,4.4,19.3-3.4,28.3-6"/>
			<path class="st3" d="M735.6,269.5c-2.3,0-9,0.4-15.6,1.4c-3.3,0.5-6.6,1.1-9.2,2c-1.3,0.4-2.5,0.9-3.5,1.4
				c-1,0.6-1.9,1.3-2.4,2.3l1.6,0.8v-1.8c-0.4,0-0.6,0-1,0.1c-1.2,0.2-3.2,0.7-5.1,1.4c-0.9,0.4-1.8,0.7-2.6,1.3
				c-0.4,0.3-0.7,0.5-1.1,0.9c-0.4,0.4-0.7,0.9-0.8,1.6l1.8,0.3l-1.7-0.7c-0.1,0.1-0.4,1-0.4,2.2c0,0.8,0.2,1.9,0.8,2.9
				c0.7,1,1.8,1.9,3.3,2.4h0c1.6,0.6,3.1,0.9,4.7,0.9c3,0,6.2-0.9,12.9-2.3l-0.4-1.8l0.3,1.8c0.1-0.1,0.7-0.1,1.4-0.1
				c2.6,0,7.8,0.3,13.2,1.1c5.4,0.8,11,2.2,14.3,4.1l0.2,0.1c2.4,1.1,4.8,1.5,7.1,1.5c4.3,0,8.2-1.4,11.9-3
				c3.7-1.6,7.3-3.4,10.5-4.3c1-0.3,1.6-1.3,1.3-2.3c-0.3-1-1.3-1.5-2.3-1.2c-3.8,1.1-7.4,3-11,4.5c-3.6,1.5-7.1,2.8-10.4,2.8
				c-1.8,0-3.7-0.4-5.6-1.2l-0.8,1.7l1-1.6c-4.1-2.3-9.9-3.7-15.5-4.6c-5.6-0.9-10.9-1.2-13.8-1.2c-0.8,0-1.4,0-1.9,0.1l-0.1,0
				c-6.7,1.4-9.9,2.2-12.1,2.2c-1.2,0-2.1-0.2-3.5-0.6h0c-0.9-0.3-1.2-0.6-1.4-0.9c-0.2-0.3-0.3-0.6-0.3-0.9l0.1-0.7l0-0.2l0,0
				l0.1-0.4l-0.8-0.1l0.7,0.4l0.1-0.3l-0.8-0.1l0.7,0.4l-0.2-0.2l0.2,0.2v0l-0.2-0.2l0.2,0.2l0.3-0.2c0.7-0.5,2.3-1.1,3.8-1.5
				c0.7-0.2,1.4-0.4,2-0.5l0.7-0.2h0.2l0.1,0l0-0.2v0.2h0l0-0.2v0.2c0.7,0,1.4-0.4,1.7-1c0,0,0.3-0.4,1-0.8c1.2-0.7,3.3-1.4,5.8-1.9
				c7.4-1.7,18.2-2.5,20.7-2.4c1,0,1.9-0.8,1.9-1.8C737.5,270.3,736.7,269.5,735.6,269.5z"/>
			<path class="st0" d="M586,347.1V378h5.4v-34.6C589.5,345.9,588.3,346.4,586,347.1"/>
			<path class="st0" d="M661.4,347.1V378h5.4v-34.6C664.9,345.9,663.7,346.4,661.4,347.1"/>
			<path class="st0" d="M565.6,347.8c0-2,1.6-3.6,3.6-3.6c2,0,3.6,1.6,3.6,3.6c0,2-1.6,3.6-3.6,3.6
				C567.2,351.3,565.6,349.7,565.6,347.8"/>
			<path class="st0" d="M625.3,347.8c0-2,1.6-3.6,3.6-3.6c2,0,3.6,1.6,3.6,3.6c0,2-1.6,3.6-3.6,3.6
				C626.8,351.3,625.3,349.7,625.3,347.8"/>
			<path class="st0" d="M582.5,371.6L582.5,371.6l0-10.6c-1.9,2.5-3.1,3-5.4,3.8V378v0l0,0c0,5.8-3.4,7.2-7.3,7.2
				c-8.1,0-7.7-9.2-7.7-13h-1.5c0,13.4,3.6,17.2,11.3,17.2c8,0,10.7-5.4,10.7-11.4L582.5,371.6z"/>
			<path class="st0" d="M652.5,347.1v25.5h-3.3v-12.1c-1.9,2.5-3.1,3.1-5.4,3.8v10.1c0,4,1,14.6-9,15.4h0h2.8
				c8.6,0,11.6-4.4,11.6-11.4h0V378h8.7v-34.6C655.9,345.9,654.8,346.4,652.5,347.1"/>
			<path class="st0" d="M640.4,378v-21.3c-3.1,1.9-7.6,6-19.5,6.8v-6.8c-1.9,2.6-3.1,3.1-5.4,3.8v12.1h-3.7v-15.9
				c-3.7,5.1-6.4,4-9.8,5.3c-2.8,0.9-6.2,3.6-6.2,8.9l0,7.1h10.7c-0.1,4.6-1.3,11.2-9,11.8h-0.1h2.8c8.6,0,11.6-4.5,11.6-11.5V378
				H640.4z M621,369.6c6.4-0.4,11.2-2.9,14.1-2.9v5.9H621V369.6z M600.9,371.6c0-2.3,1.8-4.7,5.6-4.7v5.6h-5.6V371.6z"/>
			<path class="st0" d="M719.6,347.1V378h5.4v-34.6C723.1,345.9,721.9,346.4,719.6,347.1"/>
			<path class="st0" d="M762,362c-2.8,0.9-6.2,3.6-6.2,8.9v1.7h-4.1v-15.9c-3.4,2.1-8.7,6.9-23.6,6.9v6.1h2.4
				c7.2,0,14.6-2.2,15.8-2.9v5.9H728v5.4h43.8v-21.3C768.2,361.8,765.5,360.6,762,362 M760.9,372.6v-1c0-2.3,1.8-4.7,5.6-4.7v5.6
				H760.9z"/>
			<path class="st0" d="M710.2,364.3v10.1c0,4,1,14.6-8.9,15.4h-0.1h2.8c8.5,0,11.6-4.4,11.6-11.4V378v-17.5
				C713.7,363.1,712.5,363.6,710.2,364.3"/>
			<path class="st0" d="M701.6,360.3v12.3h-1.9v-11.5c-1.5,0.6-3.3,1.2-5.4,1.6v9.9h-2.1v-9.5c-2.3,0.2-3.5,0.4-5.5,0.4l0,14.4h-0.1
				v0l0,0c0,5.8-3.4,7.2-7.3,7.2c-8.1,0-7.7-9.2-7.7-13h-1.5c0,13.4,3.6,17.2,11.3,17.2c7.9,0,10.6-5.3,10.7-11.2v-0.1V378l0-0.1
				H707v-20.9C705.6,358,703.9,359.2,701.6,360.3"/>
			<g>
				<path class="st0" d="M664.9,310.6c-1.4-0.8-3-1.5-4.7-2.2c1.4,0.9,2.9,1.8,4.3,2.7L664.9,310.6z"/>
				<path class="st0" d="M659.7,312.2c1.9,0.8,3.5,1.6,4.8,2.5"/>
				<path class="st0" d="M665.2,321.8c-1.1-0.1-2.2-0.3-3.4-0.4c1.1,0.2,2.1,0.4,3.3,0.7L665.2,321.8z"/>
			</g>
			<path class="st0" d="M781.1,119.1c-5.6-14.3-13.6-28.1-23.8-40.9c-10.9-13.7-23.6-25.6-38.1-35.4c-15.7-10.7-33-18.5-51.3-23.4
				l-0.3-0.1l-1.5-0.3l-1,0.2l-0.4,0.1l-0.2,0.1C646.2,24.2,629,32,613.3,42.7c-14.4,9.8-27.2,21.7-38,35.4
				C565,91,557,104.8,551.4,119.1c-5.4,13.9-8.3,27.9-8.3,40.4v246.8h246.4V159.5C789.4,146.9,786.5,133,781.1,119.1z M664.9,317.7
				c-8.7-3.1-14.9-4.2-20.6-4.7c-5.7-0.5-11.1-0.3-18.1-0.8c-13.5-1-32.6-4.6-71.3-20.9v-4c29.6,12.5,47.6,17.6,60.3,19.8
				c12.8,2.2,20.3,1.5,29.4,2.2c4.5,0.4,9.2,1.2,15.1,2.8c-3.2-1.4-7.2-2.6-11.1-3.6c-6.1-1.6-12.2-2.6-15.1-3
				c-0.8-0.1-1.4-0.2-1.4-0.2h-0.2l-0.2,0c-19.2-2.9-36.4-8.5-50.4-15.4c-11-5.4-20-11.5-26.5-17.8v-5.3
				c6.1,6.7,15.8,13.7,28.1,19.8c13.6,6.7,30.5,12.2,49.3,15c0.5,0,1,0.1,1.8,0.2c0.9,0.1,2,0.3,3.3,0.5c2.7,0.4,6,1.1,9.5,1.9
				c4.4,1.1,9.2,2.4,13.3,4c-19.6-11.6-37.4-14.9-55.1-21.8c-16.8-6.5-33.3-16.6-50.2-40.1v-6.4c17.6,26.1,34.2,36.2,51.6,43
				c18.2,7.1,37.5,10.5,59.1,24.2v-0.7c-22.5-34.8-67.9-18.6-110.7-89.7v-57.5c0-23,11.1-50.8,29.6-74.1
				c10.1-12.8,22.1-23.9,35.5-33c14.2-9.7,29.8-16.8,46.3-21.3c16.5,4.5,32.1,11.7,46.3,21.3c13.4,9.1,25.3,20.2,35.5,33
				c18.5,23.4,29.6,51.1,29.6,74.1v145.4H676.8c-6,0-9.1,1.8-9.1,3.9h109.9v1.8H676.8c-6,0-9.1,1.8-9.1,3.9h109.9v1.8H676.8
				c-6,0-9.1,1.8-9.1,3.9h109.9v1.8H676.8c-6,0-9.1,1.8-9.1,3.9h109.9v2.8H554.9v-2.8h110.7l-0.4-0.1l0.2-0.2
				c-4-0.6-9.6-0.8-16.3-0.8c-12.6,0-28.7,0.7-44.8,0.7c-18.2,0-36.2-1-49.2-5.2v-3.9c12.3,4.3,30.7,5.4,49.2,5.4
				c16,0,32.1-0.7,44.8-0.7c4.9,0,9.3,0.1,12.9,0.4c-11.6-2.3-19.6-2.7-27-2.7c-5.1,0-10,0.2-15.5,0.2c-13.4,0-30.5-1.4-64.5-10.5
				v-3.8c34.4,9.3,51.2,10.6,64.5,10.6c5.4,0,10.3-0.3,15.5-0.3c8.2,0,17.3,0.6,30.7,3.4 M554.9,394.7v-54.3h222.7v54.3H554.9z"/>
			<path class="st1" d="M663.2,172.8c1.3-0.1,2.6-0.2,2.6,0.2c0.1,0.4,0.1-0.1,0.1,0.2c0,0.3-1.9,0-2.3,0l0.7,0.9
				c1.4-0.2,3.5-0.1,5.1-1.3c0,0-0.2-0.3-0.2-0.8h-6L663.2,172.8"/>
			<path class="st0" d="M629.9,186.7c0-2.2,1.8-4,4-4c2.2,0,4,1.8,4,4c0,2.2-1.8,4-4,4C631.6,190.7,629.9,188.9,629.9,186.7"/>
			<path class="st0" d="M629.9,186.7h1.9c0-1.2,1-2.2,2.2-2.2c1.2,0,2.1,1,2.1,2.2c0,1.2-1,2.2-2.1,2.2c-1.2,0-2.2-1-2.2-2.2H629.9
				H628c0,3.2,2.6,5.8,5.9,5.8c3.2,0,5.9-2.6,5.9-5.8c0-3.2-2.6-5.8-5.9-5.8c-3.3,0-5.9,2.6-5.9,5.8H629.9z"/>
			<polyline class="st0" points="661.3,40.3 630.1,183 633.7,183.8 664.4,42.7 			"/>
			<path class="st0" d="M702.6,186.7c0-2.2-1.8-4-4-4c-2.2,0-4.1,1.8-4.1,4c0,2.2,1.9,4,4.1,4C700.8,190.7,702.6,188.9,702.6,186.7"
				/>
			<path class="st0" d="M702.6,186.7h1.9c0-3.2-2.6-5.8-5.9-5.8c-3.3,0-5.9,2.6-5.9,5.8c0,3.2,2.7,5.8,5.9,5.8
				c3.3,0,5.9-2.6,5.9-5.8H702.6h-1.8c0,1.2-1,2.2-2.2,2.2c-1.2,0-2.2-1-2.2-2.2c0-1.2,1-2.2,2.2-2.2c1.2,0,2.2,1,2.2,2.2H702.6z"/>
			<polyline class="st0" points="667.8,41.5 698.8,183.8 702.4,183 671.5,40.7 			"/>
			<rect x="664.4" y="42.7" class="st0" width="3.7" height="105.4"/>
			<g>
				<path class="st0" d="M666.2,29.2c-4,0-7.2,3.2-7.2,7.1c0,4,3.2,7.1,7.2,7.1c4,0,7.2-3.2,7.2-7.1
					C673.5,32.4,670.2,29.2,666.2,29.2z M666.2,41.7c-2.9,0-5.3-2.4-5.3-5.3c0-2.9,2.4-5.3,5.3-5.3c3,0,5.4,2.4,5.4,5.3
					C671.6,39.3,669.2,41.7,666.2,41.7z"/>
			</g>
			<path class="st0" d="M683.8,171.9c0-4.7,7.5-7.7,7.5-14.8c0-3.4-4.5-10.4-10.2-10.4h-29.6c-5.7,0-10.2,7.1-10.2,10.4
				c0,7.1,7.5,10.1,7.5,14.8c0,8.1-16,8.8-16,21.9c0,4.4,0,14.1,19.4,20.5l16,3.4l12.5-1.6l-0.4-1.8c19.4-6.4,19.4-16.2,19.4-20.5
				C699.8,180.7,683.8,180,683.8,171.9"/>
			<path class="st0" d="M683.8,171.9h1.9c0-0.7,0.2-1.4,0.9-2.3c0.9-1.4,2.5-2.9,3.9-4.9c1.4-2,2.7-4.5,2.7-7.6
				c0-1.2-0.4-2.5-0.9-3.8c-0.9-1.9-2.3-4-4.1-5.6c-1.9-1.6-4.2-2.9-7-2.9h-29.6c-3.7,0-6.7,2.2-8.7,4.6c-1,1.2-1.8,2.5-2.4,3.8
				c-0.6,1.3-0.9,2.6-0.9,3.8c0,4.2,2.3,7.2,4.2,9.5c1,1.1,1.8,2.2,2.5,3.1c0.6,0.9,0.9,1.6,0.9,2.3c0,1.4-0.7,2.4-1.9,3.7
				c-2,1.9-5.3,3.7-8.4,6.3c-1.5,1.3-3,2.9-4,4.9c-1.1,2-1.7,4.3-1.7,7.1c0,2.2,0,6.3,2.7,10.5c2.7,4.2,8,8.5,17.9,11.8l0.1,0
				l16.4,3.5l14.8-1.9l-0.8-3.8l-1.8,0.4l0.6,1.7c9.9-3.3,15.2-7.6,18-11.8c2.7-4.2,2.7-8.3,2.7-10.5c0-3.7-1.1-6.6-2.9-8.9
				c-2.6-3.4-6.1-5.5-8.8-7.5c-1.4-1-2.5-1.9-3.2-2.8c-0.7-0.9-1.1-1.7-1.1-2.8H683.8h-1.9c0,2.7,1.4,4.8,3.1,6.3
				c2.6,2.4,5.9,4.1,8.5,6.4c2.6,2.3,4.4,4.8,4.5,9.2c0,2.1,0,5.2-2.2,8.5c-2.1,3.3-6.5,7.1-16,10.3l-1.6,0.5l0.3,1.4l-10.2,1.3
				l-15.7-3.3l-0.4,1.8l0.6-1.8c-9.5-3.1-13.9-6.9-16-10.3c-2.1-3.3-2.1-6.4-2.1-8.5c0-2.9,0.9-5,2.1-6.8c2-2.6,5.1-4.6,8-6.6
				c1.5-1,2.8-2.1,4-3.4c1.1-1.4,1.9-3.1,1.9-5.1c0-1.7-0.7-3.1-1.5-4.3c-1.2-1.8-2.8-3.4-4-5c-1.2-1.7-2-3.3-2-5.5
				c0-0.4,0.2-1.3,0.6-2.3c0.7-1.5,1.8-3.1,3.3-4.3c1.4-1.2,2.9-2,4.5-2H681c2.1,0,4.2,1.4,5.9,3.3c0.8,0.9,1.5,2,1.9,3
				c0.5,1,0.6,1.9,0.6,2.3c0,2.8-1.5,4.9-3.3,7.1c-0.9,1.1-1.9,2.2-2.7,3.4c-0.8,1.2-1.5,2.6-1.5,4.3H683.8z"/>
			<path class="st0" d="M677.5,178.5L677.5,178.5l0.1,0.9c0.6-0.5,0.6-1.4-0.1-1.8L677.5,178.5"/>
			<path class="st0" d="M677.7,179.4c0.4,1.8,2,3,3.5,4.2c1.8,1.4,3.5,2.8,3.5,4.9c0,2.4-0.4,2.6-2.1,3l-0.4,0.6l0.6,0.3
				c2.2-0.5,2.8-1.3,2.8-3.9c0-2.7-2.1-4.3-3.8-5.7c-1.6-1.3-3.2-2.5-3.2-4.4v-0.1c-0.1-0.7,0.1-1.8,2.3-3.1l0.2-0.7l-0.7-0.2
				c-1.7,1-2.6,2.1-2.8,3.2C678.3,178,678.2,178.9,677.7,179.4"/>
			<path class="st0" d="M676.5,187.7L676.5,187.7c0.1,1.2-0.7,3.7-2.4,4.4l-0.1,0.1c-3.9-0.2-7.2-0.3-7.7-0.3l-0.5,0.5l0.5,0.5
				c1.7,0,14,0.4,18.3,1.3l0.6-0.4l-0.4-0.6c-2.1-0.5-5.7-0.8-9.1-1c1.2-1.1,1.8-2.9,1.8-4.1l-0.1-0.9c-0.1-2.1-1.4-3.7-2.5-5.1
				c-1-1.2-1.8-2.4-1.9-3.6c0,0,0-2.2,1.8-3.1l0.3-0.5l-0.1-0.2l-0.7-0.2c-1.8,1-2.3,3-2.3,4c0,1.6,1,2.9,2.1,4.2
				C675.4,184.2,676.5,185.7,676.5,187.7"/>
			<path class="st0" d="M670.6,179.9c0.9,0,1.9-2.7,0.2-2.7C669.6,177.1,668.4,179.7,670.6,179.9"/>
			<path class="st0" d="M676.7,179.7c0.4,0,0.8-0.2,1-0.3l-0.1-0.9v0.1l0.1-0.9c-0.3-0.1-0.6-0.2-1-0.2
				C674.6,177.4,674.3,179.7,676.7,179.7"/>
			<path class="st0" d="M690,189.4c2.1,0.2,1.7-2.7-0.4-2.7C687.7,186.7,687.9,189.2,690,189.4"/>
			<path class="st0" d="M677.6,187.7l0,0.3v0.1c0.2,0.3,0.9,0.6,1.9,0.6c3.3,0.2,1.2-1.8-0.8-2.1c-0.5,0-0.9,0.3-1.2,0.6
				L677.6,187.7L677.6,187.7"/>
			<path class="st0" d="M672.5,188.7c1.5-0.9-0.5-3.4-2-2.4C669.2,187.2,670.4,190,672.5,188.7"/>
			<path class="st0" d="M699.5,191.8l-2.3-5.9c-4.3-5.7-12.6-7.7-13.3-13.2l-0.1-0.1l-0.3-4c0,0-1.7-2.5-2.8-2.5
				c-1.4,0-3.1,1.4-2.7,3.1h-1.1c0.5-1.5-0.7-3.5-1.8-3.5c-2-0.4-3.8,2.7-3.5,4.5h-1.7c1.3-1.3,0.7-5.3-0.6-5.3
				c-3.7,0.2-3.8,3.7-3,5l-1.9-0.1c1.7-2,0.7-4.5-0.7-4.5c-1.6-0.7-4.2,1.3-4.2,3.1c0,0-1.3-0.3-2.2-0.3c0-4.2-3.9-2-3.3-3.8
				c-0.1-1,10.9-0.4,10.9-0.4c0.9-0.4,1.3-1.8,0.7-2.7c3.1,0.5,2.2,2.8,2.2,2.8c4.4-0.4,16.3,0.6,17.7,1.5l0.2-0.6
				c-2.8-0.4-5.5-1-5.5-1c3.7-4.7,4.4-2.8,4.4-1.4l2,0.2l0.4-0.9c0,0-0.9-2.7-2.6-2.5c-1.7,0-2.8,1.1-3.1,2.1
				c-0.1,0.6-1.8,0.3-1.8,0.3c0.3-0.9-0.3-2.2-1.8-2.2c-2.6,0.4-2.6,2.7-1.7,3.6c-3.1,1.1-3-0.3-3-0.3c2.8-1.8,1.1-4-0.3-4
				c-1-0.2-3.7,0.9-2.1,3.4h-1.2c-1.3-1.8-5.2-2.5-5.9-1.8c-0.6-1.3-4.8-1.8-6.8-2.3c-1.3-0.3-0.9-0.8-0.9-0.8l26.1-0.2
				c0.4,0.7,2,1.6,3.2-0.2h1.4c-0.4,1.4,2,2,3.1,1.3l-0.9-2.5c-4.1,0.9-10.7,0.2-10.7,0.2l2.5,1.3l-9.1-0.9l3.3-0.6h-18.4l1.8-1.4
				l-4.8-0.7l2.8-0.9l-2.2-0.7l7.9-0.7l-2.5-1.4l3.2-0.5l-2.4-0.7l12.7-0.2l0.4-1.3l0-0.1h-21.9c-5.7,0-10.2,7.1-10.2,10.4
				c0,7.1,7.5,10.1,7.5,14.8c0,8.1-16,8.8-16,21.9c0,4.4,0,14,19.1,20.5c-0.3,0.2-0.4,0.5-0.4,0.8c0,2.7,6.9,4.8,15.3,4.8
				c8.5,0,15.3-2.1,15.3-4.8c0-0.5-0.2-0.9-0.7-1.1c11.8-4.1,16.1-9.5,17.6-14l-0.3-0.2L699.5,191.8z M659.5,160.2l2.9,0.2l-1.8,2.2
				h-3.1L659.5,160.2z M681.8,172.6c-1,0-0.7-1.1,0-1.1C682.9,171.7,682.8,172.6,681.8,172.6 M680.6,167.4c2.4,1.2,0.4,2.9-0.8,2.9
				C678.4,169.8,679.4,167.3,680.6,167.4 M674.4,167c1.7,0.3,1.8,2.7-0.5,2.7C671.4,169.6,673.2,166.8,674.4,167 M668.6,166.6
				c1.6,0.2,0.8,3.3-0.6,3.1C666.2,169.5,666.9,166.4,668.6,166.6 M671.5,171c-0.6,1.4-6.3,0.7-6.9,0.3
				C665.7,170.9,670.1,170.7,671.5,171 M662.8,166.7c2.2,0.5,1.4,3-0.8,2C659.8,168,661.6,166.5,662.8,166.7 M657.7,183.5
				c0.6,0,2.2,0.3,2.1,0.9l-6,0.1C653.8,184.5,655.5,183.3,657.7,183.5 M655.5,185.4c1.4-0.1,2.6,0.4,3.3,0.8
				c-1.1,0.5-5.8,0.6-6.3,0.5C652.8,186,654.2,185.3,655.5,185.4 M645,187.7c1.7,0.1,1.9,0.8,1.9,0.8l-4-0.1
				C643,187.8,644.1,187.7,645,187.7 M645.3,191.2c-1.4,0-1.1-1.4,0.2-1.3C646.7,189.9,646.7,191.2,645.3,191.2 M642.2,192.7
				c7.9,0.2,4.2-2.5,7.4-2.9c3.4-0.6,2.5,1.4,3.9,1.2c3.2,0,1.4-3.2,3.9-3.2c2.7,0,2.6,3.9,2.6,3.9c-9.3,0.7-15.4,1.8-17.7,1.8
				V192.7z M644.4,198.3c-1.3,0.1-3,0.2-2.9-0.4c-0.1-0.5,2.3-0.8,3.4-0.8l1.4-0.3C646.5,197.9,645.7,198.2,644.4,198.3
				 M648.4,198.5l-0.7-2.2h1.7c0.2-0.6,2.1-0.4,2.1-0.4C651.1,198,648.4,198.5,648.4,198.5 M679.8,213.7c1.4,2.9-9,4.6-8,0.5
				l-0.6-0.5c-5.9-0.3-17.1-0.5-17.2-0.9c-0.1-1.5,11.7-2.5,14.1-2.5c10.4-0.1,14,1.4,14.1,2.2C680.7,212.6,680.1,213.2,679.8,213.7
				 M652.4,198.4c0-0.5,0.6-1.7,1.8-1.6c0.8-0.1,2,0.4,2.1,1.5L652.4,198.4z M671,204.5c3.6,0,1.5-3.8,1.5-3.8h2.7
				c1-0.1,4.2,0.3,4.2,0.3c-0.7,3.4-3.9,2.9-4.8,2.6c-1.7,4.2-3.6,4-4.3,3.9c-0.6-0.1-2.2-1.8-2-2.9c0-2.4,1-3.5,2.5-3.5l0.2,1.8
				C669.6,203.8,670.2,204.5,671,204.5 M676.9,199.8c0-0.9,3-3.3,4.1-3.3c1.1,0,2.8,1,2.9,1.9l-0.6,0.2v1.5c-1,0.8-3.5-0.2-3.5-0.2
				L676.9,199.8z M674.6,198.4c-1.1-0.1-0.7-0.9,0.2-1.3c0,0-1.5-0.4-2.7-0.3c-0.7,0-2.5-1.8-2.5-1.8s3.1-0.4,4.4-0.2
				c0,0,4.4,0.2,4.9,0.5C678.8,196.6,675.7,198.3,674.6,198.4 M670.2,197.5c-3.9-0.1-1.2,1.6-1.2,1.6l-5.2,0.1c0-1.6,2.8-3,4.5-2.9
				C669.5,196.2,670.2,196.9,670.2,197.5 M667.9,208c-0.2,0.6-1.3,0.4-1.6-0.3c-2,0.1-2-0.7-1.6-1.7c0.6-1.4,1.8-1.4,2-0.5
				C666.9,206.6,667.9,208,667.9,208 M659.8,205.6c0,0-0.3,1.6-1.3-0.1c-0.4-1.1,0-4.2,3.9-4.2c1-0.1,2.1,0.5,1.1,0.5
				c-0.9,0-3.7,0.9-3.9,1.5C659.7,204,659,205.2,659.8,205.6 M660.8,198c-2.4-0.1-4.2-1.7-4.2-2.7c2-0.4,7.5-0.3,9.1-0.1
				C665,196.3,661.9,198,660.8,198 M679.9,207.8c-3.2-0.7-1.4-2.2-0.8-1.9c0.1,0.4,0.1,1,1.3,1c0.6-0.5,2.1-1.2,2.1-0.1
				C682.5,207.4,681.3,208,679.9,207.8 M684.4,203.4c-2-0.1-2.1,0.7-1.5,1.2c0,0.6-0.9,0.8-2.5,0.5c-2.4-0.3-1.4-1.5-0.3-0.9
				c0.9,0.3,1.6-0.4,0.9-0.7c-1.1-0.2,0-1.4,1.6-1.4C684.1,202.1,684.6,202.6,684.4,203.4 M686.3,196.1c1.4,0,5.8,0.8,5.5,1.7
				c-1.4,1.4-6,2.3-6.2,1.4c0-0.7,2.3-1.4,1-1.4C683.5,197.7,684.1,195.7,686.3,196.1 M687.9,208.4c-1.7,1.3-2.8,0.4-2.8-0.9
				c-0.1-1.5,2.7-4.2,4.2-3.6c1.6,2.6-2,1.6-2.5,2.5C686.2,208,688.4,207.6,687.9,208.4 M695,204.1c-0.8,1.8-3,2.6-3.9,3.4
				c-1,1-1.9,0.5-1.3-0.3c1.9-1.2,1.8-2.6,1.1-3.4c-0.4-1.2,1.1-0.8,2.4-0.4C694.5,203.1,695.2,203.5,695,204.1 M695.5,202.6
				c-2.7,0-6.4-0.8-6.7-1.8c0-0.9,2.8-1.6,4.3-1.6c1.7,0,3.7,0.9,4,1.5C697,201.7,696.8,202.6,695.5,202.6 M697.2,199.2l-1.5-0.4
				v-1.5l-4.4-1.3c-4-1.1-22.1-2-23.4-2c-1.6,0-14.1,0-23.9,1.8l-0.2-1.3c5-1.7,18.6-1.7,18.6-1.7l-1.1-1.2c-0.8-1.3-0.9-2.7-0.6-4
				l1.7,0.1c0,1,0.8,2.1,2.3,1.4c1.5-0.8,1.2-3.6-1.5-2.7l-0.5,0.4l-1.7,0l0.3-0.9l4.1-0.4l-3.3-1.1c0.2-0.4,0.4-0.6,0.6-0.9
				c1.2,0.1,3,0.1,4.3,0.1c0.6,1.9,1.1,4.1,0.6,6.3l0.9,0.1c0.6-1.9,0.2-4.2-0.3-6.5c0.4-0.1,0.8-0.1,0.9-0.2
				c-0.2-0.1-0.6-0.2-1.1-0.3c-0.3-1.7-0.5-3.3-0.3-4.9c0.3-0.4,0.7-0.7,1.7-0.5c-1.5-0.4-0.4-2.9-0.4-2.9s-2,0.6-2,1.8
				c-2.2-0.2-1.5-1.8-1.5-1.8c0.4-1.3-6.5-1.5-6.5-1.5c4.8-1.1,17.1-0.9,17.1-0.9l-1.8-1.4l4.6,0.2l-0.3,2l5.1,0.5
				c0.4,0.4,0.8,0.9,0.9,1.6c-1,0.3-2.2,1.2-2.1,2.5c-0.2-0.1-0.6-0.1-1.1,0c-1.6,0.6-1.5,3.4,0.9,2.7c0.4-0.1,0.7-0.6,0.9-1.1
				c0.6,1,2.1,2.4,6.7,4.5c1,0.4,5.3,2.5,5.3,6.1c0,0.7-0.3,2.6-1.8,3.4c0.8-0.3,2-0.7,2.6-0.6l-0.5,2.8c0,0-2-1.3-7.4-1.3
				c0,0,5.3,0.7,8.8,2.4C696.8,196.7,697.7,197.7,697.2,199.2 M663.5,179.9c1.2-0.1,2.1-0.2,2.6-0.5c0,1.1,0.3,2.3,0.6,3.4
				c-1.1-0.1-2.3-0.2-3.3-0.2C664.4,181.5,663.5,179.9,663.5,179.9 M697.9,195.7c0.5-2.3-1.2-3.7-1.9-4c1.3-3-0.8-5.6-2.1-6.7
				c-2.8-3-7.7-4-7.9-5c1.2,0,1.6-0.8,2.8-0.9c10.7,6.2,9.9,14.6,9.8,16.6L697.9,195.7z"/>
		</g>
	</g>
</g>
<g>
	<g>
		<g>
			<g>
				<g>
					<path class="st0" d="M71.3,195.7v72.2h12.5v-81.1C79.3,192.7,76.6,193.9,71.3,195.7z"/>
					<path class="st0" d="M244.7,195.7v72.2h12.5v-81.1C252.7,192.7,250,193.9,244.7,195.7z"/>
					<path class="st0" d="M24.3,197.2c0-4.6,3.8-8.3,8.4-8.3c4.6,0,8.3,3.7,8.3,8.3c0,4.6-3.7,8.3-8.3,8.3
						C28.1,205.5,24.3,201.8,24.3,197.2z"/>
					<path class="st0" d="M161.5,197.2c0-4.6,3.7-8.3,8.3-8.3c4.5,0,8.3,3.7,8.3,8.3c0,4.6-3.8,8.3-8.3,8.3
						C165.3,205.5,161.5,201.8,161.5,197.2z"/>
					<path class="st0" d="M63.3,252.9L63.3,252.9l-0.1-25c-4.5,5.9-7.2,7.2-12.5,8.9v31c0,0,0,0.1,0,0.1v0
						c0,13.5-7.8,16.9-16.8,16.9c-18.5,0-17.7-21.6-17.7-30.5h-3.4c0,31.3,8.3,40.2,25.9,40.2c18.4,0,24.6-12.7,24.6-26.7
						L63.3,252.9z"/>
					<path class="st0" d="M224.1,195.7v59.6h-7.6V227c-4.5,6-7.1,7.2-12.5,8.9v23.6l0,0c0.1,9.2,2.2,34.1-20.6,36h-0.1h6.5
						c19.7,0,26.6-10.3,26.7-26.6h0v-1.1h20v-81.1C232.2,192.7,229.4,193.9,224.1,195.7z"/>
					<path class="st0" d="M196.4,267.9v-49.8c-7.1,4.4-17.6,13.9-44.8,15.8v-15.8c-4.4,5.9-7.1,7.1-12.4,8.9v28.4h-8.6v-37.2
						c-8.5,11.8-14.7,9.2-22.6,12.5c-6.5,2-14.4,8.3-14.4,20.8l0,16.5h24.7c-0.3,10.9-3,26.3-20.7,27.7h-0.1h6.5
						c19.8,0,26.7-10.5,26.7-26.9l0,0v-0.8H196.4z M151.6,248.3c14.7-0.9,25.7-6.7,32.4-6.7v13.8h-32.4V248.3z M105.5,253
						c0-5.3,4.3-10.9,12.8-10.9v13.2h-12.8V253z"/>
				</g>
				<g>
					<g>
						<path class="st0" d="M378.6,195.7v72.2h12.4v-81.1C386.6,192.7,383.9,193.9,378.6,195.7z"/>
						<path class="st0" d="M476.2,230.6c-6.6,2-14.4,8.3-14.4,20.8v3.9h-9.5v-37.2c-7.9,4.9-20,16.1-54.4,16.1v14.2h5.6
							c16.7,0,33.7-5.2,36.4-6.9v13.8h-42v12.5h100.9v-49.8C490.3,229.9,484.1,227.3,476.2,230.6z M473.6,255.3V253
							c0-5.3,4.3-10.9,12.8-10.9v13.2H473.6z"/>
						<path class="st0" d="M357,236v23.6l0,0c0.1,9.2,2.3,34.1-20.5,36h-0.2h6.5c19.7,0,26.6-10.3,26.7-26.6l0,0v-1.1V227
							C365,233,362.3,234.2,357,236z"/>
					</g>
					<path class="st0" d="M337,226.5v28.8h-4.4v-26.9c-3.5,1.4-7.6,2.7-12.4,3.6v23.3h-4.8v-22.2c-5.2,0.5-8,0.9-12.5,1l-0.1,33.7
						c0,0,0,0,0,0c0,0,0,0.1,0,0.1v0c0,13.5-7.9,16.9-16.8,16.9c-18.6,0-17.7-21.6-17.7-30.5h-3.4c0,31.3,8.4,40.2,25.9,40.2
						c18.2,0,24.4-12.3,24.7-26.1c0-0.1,0-0.2,0-0.3l0,0c0,0,0-0.1,0-0.2l0-0.1h34.1V219C346.4,221.1,342.5,223.9,337,226.5z"/>
				</g>
			</g>
		</g>
	</g>
	<g>
		<path class="st0" d="M118.9,322.7h4.7v21.5h3.7v4.6H98.1c-0.5,0-1.4-0.4-2.7-1.1c-1.5-0.9-2.6-1.9-3.2-3c-0.6-1.1-0.9-2-1.1-2.7
			c-0.1-0.7-0.2-2.1-0.2-4.2c0-3.7,1.6-7.1,4.7-10.2c3.2-3.2,7.1-4.9,11.5-4.9c4.6,0,8.5,1.6,11.7,4.9L118.9,322.7z M107.1,327.3
			c-2.8,0-5.4,1-7.9,2.8c-2.5,1.9-3.7,3.9-3.7,6.1c0,2.7,0,4,0,3.8c0.1,1,0.3,1.8,0.8,2.4c0.7,0.9,2.1,1.5,4,1.7
			c0.3,0,2.5,0.1,6.4,0.1h10.4c1.5,0,2.3-1.2,2.3-3.5c0-1.2-0.2-2.6-0.6-4c-1.2-3.3-2.5-5.6-3.9-6.9
			C113.2,328.1,110.6,327.3,107.1,327.3z M102.8,312c0.9-0.1,1.7,0.1,2.3,0.6c0.7,0.5,1.1,1.2,1.2,2.1c0.1,0.9-0.1,1.6-0.6,2.3
			c-0.5,0.6-1.2,1-2,1.2c-0.9,0.1-1.7-0.1-2.3-0.6c-0.7-0.5-1.1-1.2-1.2-2.1c-0.1-0.9,0.1-1.7,0.6-2.3
			C101.3,312.5,102,312.1,102.8,312z M109.5,312c0.9-0.1,1.7,0.1,2.3,0.6c0.7,0.5,1.1,1.2,1.2,2.1c0.1,0.9-0.1,1.6-0.6,2.3
			c-0.5,0.6-1.2,1-2,1.2c-0.9,0.1-1.7-0.1-2.4-0.6c-0.7-0.5-1.1-1.2-1.2-2.1c-0.1-0.9,0.1-1.7,0.6-2.3
			C108,312.5,108.7,312.1,109.5,312z"/>
		<path class="st0" d="M144.7,318c-0.9,0.3-2.1,0.6-3.6,1c-2,0.5-4.5,1.2-7.6,1.9c0.2-1,0.5-1.7,0.9-1.9c0.1-0.1,0.9-0.3,2.4-0.7
			c2.5-0.8,5.6-1.7,9.2-2.6C145.9,316.5,145.4,317.3,144.7,318z"/>
		<path class="st0" d="M141.7,352.4c-2.3-1.4-4.9-2.9-7.8-4.5l0.7-5.1c4.6,2.9,7.3,4.5,8.1,4.7c1.7-0.3,2.6-2,2.6-4.9
			c0-1.9-0.6-3.4-1.8-4.6c-1.2-1.2-2.8-1.8-4.8-1.8c-1.9,0-3.2,0.4-4.1,1.3c-0.8,0.7-1.3,2-1.7,3.8c-0.3,1.3-0.5,2.7-0.7,4
			c-0.4,1.3-1.1,2.3-2.3,2.9c-0.6,0.3-1.6,0.5-3.1,0.5h-1.3v-4.6h1.3c1.2,0,1.8-0.3,1.8-0.7c0-3.1,0.7-5.6,2-7.6
			c1.9-2.6,4.8-3.9,8.9-3.9c3,0,5.4,0.9,7.3,2.8c2.1,2,3.1,4.7,3.1,8c0,0.5,0,0.9-0.1,1.4h4.3v4.6h-5.8c-1.6,2.7-3.3,4.1-5.2,4.1
			C142.6,352.8,142.1,352.7,141.7,352.4z"/>
		<path class="st0" d="M177.6,366.4c-0.9,0.3-2.1,0.6-3.6,1c-2,0.5-4.5,1.2-7.6,1.8c0.2-1,0.5-1.6,0.9-1.9c0.1-0.1,0.9-0.3,2.4-0.7
			c2.4-0.8,5.5-1.6,9.1-2.6C178.7,364.9,178.3,365.7,177.6,366.4z"/>
		<path class="st0" d="M169.6,323.1v-2l4.6-2.1v3.7c4.4,0,8.2,1.6,11.5,4.9c3.1,3.1,4.6,6.5,4.6,10.2c0,2-0.1,3.5-0.5,4.5
			c-0.2,0.7-0.7,1.3-1.4,2h4.6v4.6h-40.8v-4.6h4.6c-0.7-0.6-1.1-1.3-1.4-2c-0.4-1-0.5-2.4-0.5-4.5c0-3.2,1.3-6.2,3.9-8.9
			C161.6,325.8,165.2,323.9,169.6,323.1z M169.6,344.2v-16.5c-2.5,0-4.8,0.9-7,2.8c-2.2,1.9-3.2,3.8-3.2,5.7c0,3,0.4,5,1.2,6.1
			C161.5,343.5,164.5,344.2,169.6,344.2z M184.5,342.3c0.6-0.7,0.9-1.5,1-2.3c0.1-0.7,0.2-2,0.2-3.8c0-2-1.3-4-3.8-5.9
			c-2.5-1.9-5.1-2.9-7.7-2.9v16.8c3.3,0,5.5-0.1,6.4-0.2C182.5,343.8,183.8,343.2,184.5,342.3z"/>
		<path class="st0" d="M191.1,344.2h7.1v-31.7h4.6v31.7h5.8v4.6l-17.4-0.1V344.2z"/>
		<path class="st0" d="M218.7,295.6c0.9,0,1.5,0.3,1.9,1c0.4,0.5,0.7,1.4,1,2.8c0.1,0.4,0.1,0.8,0.1,1.2c0,1.8-1.3,3-3.8,3.4
			c-0.3,0.1-2.4,0.3-6.3,0.8l-1-1.4c3.4-0.3,5.3-0.5,5.8-0.6c2.3-0.4,3.5-0.8,3.8-1.4c0.2-0.5,0.2-1,0.1-1.5
			c-0.3-1.2-0.5-1.8-0.7-2.1c-0.2-0.4-0.6-0.6-1-0.6c-0.6,0-1.2,0.1-1.7,0.4c-0.8,0.3-1,0.9-0.9,1.6c0.1,0.4,0.2,0.7,0.3,1.1
			c0.1,0.2,0.2,0.3,0.4,0.3c0.5,0,1.4-0.2,2.9-0.7l-0.5,1.5c0,0.1-0.3,0.2-1,0.4c-0.7,0.2-1.2,0.3-1.6,0.3c-0.6,0-1-0.2-1.3-0.6
			c-0.2-0.3-0.4-0.9-0.6-1.8c0-0.3-0.1-0.6-0.1-0.8c0-0.8,0.3-1.4,0.9-1.9C216.4,296,217.5,295.6,218.7,295.6z"/>
		<path class="st0" d="M229.8,348.7c-1.6,2.7-3.3,4.1-5.2,4.1c-0.5,0-0.9-0.1-1.4-0.4c-2.3-1.4-4.9-2.9-7.8-4.5l0.7-5.1
			c4.6,2.9,7.3,4.5,8.1,4.7c1.6-0.3,2.5-2,2.5-4.9c0-1.9-0.6-3.4-1.8-4.6c-1.1-1.2-2.8-1.8-4.8-1.8c-1.9,0-3.2,0.4-4.1,1.3
			c-0.8,0.7-1.3,2-1.7,3.8c-0.2,1.3-0.5,2.7-0.7,4c-0.4,1.3-1.2,2.3-2.3,2.9c-0.6,0.3-1.6,0.5-3.1,0.5h-1.2v-4.6h1.2
			c1.2,0,1.8-0.3,1.8-0.7c0-3.1,0.7-5.6,2.1-7.6c1.8-2.6,4.8-3.9,8.9-3.9c3,0,5.4,0.9,7.3,2.8c2.1,2,3.1,4.7,3.1,8
			c0,0.5,0,0.9,0,1.4h4.1v-31.8h4.6v36.3H229.8z"/>
		<path class="st0" d="M243.8,312.4h4.6v36.3h-4.6V312.4z"/>
		<path class="st0" d="M294,344.2c0,0.6-0.1,1.2-0.1,1.7c-0.2,1.3-0.4,2.3-0.7,2.9c-1.4,2.9-3.3,4.9-5.6,6c-2.2,1-5.6,1.5-10.1,1.5
			c-4.8,0-8.4-1.4-10.8-4.2c-1.7-2-2.5-4.3-2.5-6.9c0-4.7,1.7-8.2,5.2-10.4c1.4-0.9,3.2-1.6,5.2-1.9l1.6,4.4c-2.1,0-3.8,0.6-5.2,1.7
			c-1.5,1.3-2.3,3.3-2.3,5.8c0,2,0.7,3.6,2.2,4.8c1.7,1.4,4,2.1,7,2.1c3.1,0,5.8-0.7,8.1-2.3c2.3-1.5,3.4-3.2,3.4-5.2v-15.6l4.6-2.4
			V344.2z"/>
		<path class="st0" d="M312.8,348.7h-19.3v-4.6h5.2v-17.5l4.5-2.3v19.9h5.1v-17l4.6-2.3V348.7z"/>
		<path class="st0" d="M326.1,329.8h4.6v16.1c0,2.5-0.4,4.8-1.4,6.9c-0.8,1.8-1.7,3-2.8,3.7c-2.2,1.7-6.8,2.5-14.1,2.5l0.9-4.7
			c4.2,0,7.1-0.3,8.7-0.8c2.8-0.9,4.2-2.9,4.2-5.9V329.8z"/>
		<path class="st0" d="M336.1,312.4h4.6v36.3h-4.6V312.4z"/>
		<path class="st0" d="M381.6,348.7h-34.5l-2.3-4.6h17.5c3.4,0,5.3,0,5.9-0.1c1.6-0.2,2.8-0.8,3.6-1.7c1-1.3,1.5-3.3,1.5-6.1
			c0-2.2-1.2-4.2-3.6-6.1c-2.4-1.9-4.9-2.8-7.7-2.8c-3.4,0-6.1,1-8,3c-1.3,1.4-2.6,3.9-3.9,7.4h-4.8c0.2-0.8,0.6-2.1,1.2-4
			c1-3.1,2.7-5.6,4.9-7.5c2.9-2.4,6.4-3.5,10.6-3.5c4.4,0,8.2,1.6,11.5,4.9c3.1,3.1,4.6,6.5,4.6,10.2c0,2.2-0.6,4.3-1.6,6.4h5V348.7
			z"/>
		<path class="st0" d="M393.6,301.9c-0.9,0.3-2.1,0.6-3.6,1c-2,0.5-4.5,1.2-7.6,1.8c0.2-1,0.5-1.7,0.9-1.9c0.1-0.1,0.9-0.3,2.4-0.7
			c2.5-0.8,5.6-1.7,9.2-2.6C394.7,300.4,394.3,301.2,393.6,301.9z"/>
		<path class="st0" d="M402.2,348.7c-1.6,2.7-3.4,4.1-5.2,4.1c-0.5,0-0.9-0.1-1.3-0.4c-2.3-1.4-4.9-2.9-7.8-4.5l0.7-5.1
			c4.7,2.9,7.3,4.5,8.1,4.7c1.7-0.3,2.6-2,2.6-4.9c0-1.9-0.6-3.4-1.7-4.6c-1.2-1.2-2.8-1.8-4.9-1.8c-1.8,0-3.2,0.4-4.1,1.3
			c-0.7,0.7-1.3,2-1.7,3.8c-0.3,1.3-0.5,2.7-0.7,4c-0.4,1.3-1.1,2.3-2.4,2.9c-0.6,0.3-1.6,0.5-3.1,0.5h-1.2v-4.6h1.2
			c1.2,0,1.8-0.3,1.8-0.7c0-3.1,0.7-5.6,2.1-7.6c1.8-2.6,4.8-3.9,8.9-3.9c3,0,5.4,0.9,7.3,2.8c2.1,2,3.1,4.7,3.1,8
			c0,0.5,0,0.9,0,1.4h4.1v-31.8h4.6v36.3H402.2z"/>
		<path class="st0" d="M416.2,312.4h4.5v36.3h-4.5V312.4z"/>
	</g>
</g>
</svg>
